# Blender 3.1.1
# www.blender.org
mtllib nk_backrooms.mtl
o Plane
v -100.000000 0.000000 100.000000
v 100.000000 0.000000 100.000000
v -100.000000 0.000000 -100.000000
v 100.000000 0.000000 -100.000000
vn -0.0000 1.0000 -0.0000
vt -49.500000 -49.500000
vt 50.500000 -49.500000
vt -49.500000 50.500000
vt 50.500000 50.500000
s 0
usemtl carpet
f 2/2/1 3/3/1 1/1/1
f 2/2/1 4/4/1 3/3/1
o Plane.001
v 100.000000 2.999941 100.000000
v -100.000000 3.000006 100.000000
v 100.000000 2.999994 -100.000000
v -100.000000 3.000059 -100.000000
vn -0.0000 -1.0000 -0.0000
vt -49.500000 -49.500000
vt 50.500000 -49.500000
vt -49.500000 50.500000
vt 50.500000 50.500000
s 0
usemtl ceiling
f 6/6/2 7/7/2 5/5/2
f 6/6/2 8/8/2 7/7/2
o Cube.001
v -3.000000 0.000000 2.000000
v -3.000000 3.000000 2.000000
v -3.000000 0.000000 1.000000
v -3.000000 3.000000 1.000000
v 4.000000 0.000000 2.000000
v 4.000000 3.000000 2.000000
v 4.000000 0.000000 1.000000
v 4.000000 3.000000 1.000000
vn -1.0000 -0.0000 -0.0000
vn -0.0000 -0.0000 -1.0000
vn 1.0000 -0.0000 -0.0000
vn -0.0000 -0.0000 1.0000
vn -0.0000 -1.0000 -0.0000
vn -0.0000 1.0000 -0.0000
vt 0.186603 -0.440193
vt -1.693783 -0.440193
vt -1.693783 0.186603
vt 0.186603 1.440193
vt -1.693783 1.440193
vt -1.693783 0.186603
vt -1.693783 -0.440193
vt -1.693783 0.813397
vt 0.813397 -0.440193
vt 0.813397 1.440193
vt -1.693783 1.440193
vt -1.693783 0.813397
vt 2.693783 -0.440193
vt 0.186603 -0.440193
vt 2.693783 0.186603
vt 0.186603 1.440193
vt 2.693783 1.440193
vt 2.693783 0.186603
vt 0.813397 -0.440193
vt 2.693783 -0.440193
vt 2.693783 0.813397
vt 2.693783 0.813397
vt 2.693783 1.440193
vt 0.813397 1.440193
s 0
usemtl wall
f 10/12/3 11/17/3 9/9/3
f 12/19/4 15/28/4 11/15/4
f 16/32/5 13/22/5 15/27/5
f 14/25/6 9/10/6 13/21/6
f 15/29/7 9/11/7 11/16/7
f 12/20/8 14/26/8 16/30/8
f 10/12/3 12/18/3 11/17/3
f 12/19/4 16/31/4 15/28/4
f 16/32/5 14/24/5 13/22/5
f 14/25/6 10/13/6 9/10/6
f 15/29/7 13/23/7 9/11/7
f 12/20/8 10/14/8 14/26/8
o Cube.002
v -3.000000 0.000000 2.000000
v -3.000000 3.000000 2.000000
v -4.000000 0.000000 2.000000
v -4.000000 3.000000 2.000000
v -3.000000 0.000000 -5.000000
v -3.000000 3.000000 -5.000000
v -4.000000 0.000000 -5.000000
v -4.000000 3.000000 -5.000000
vn -0.0000 -0.0000 1.0000
vn -1.0000 -0.0000 -0.0000
vn -0.0000 -0.0000 -1.0000
vn 1.0000 -0.0000 -0.0000
vn -0.0000 -1.0000 -0.0000
vn -0.0000 1.0000 -0.0000
vt 0.208988 -0.373036
vt -1.537084 -0.373036
vt -1.537084 0.208988
vt 0.208988 1.373036
vt -1.537084 1.373036
vt -1.537084 0.208988
vt -1.537084 -0.373036
vt -1.537084 0.791012
vt 0.791012 -0.373036
vt 0.791012 1.373036
vt -1.537084 1.373036
vt -1.537084 0.791012
vt 2.537084 -0.373036
vt 0.208988 -0.373036
vt 2.537084 0.208988
vt 0.208988 1.373036
vt 2.537084 1.373036
vt 2.537084 0.208988
vt 0.791012 -0.373036
vt 2.537084 -0.373036
vt 2.537084 0.791012
vt 2.537084 0.791012
vt 2.537084 1.373036
vt 0.791012 1.373036
s 0
usemtl wall
f 18/36/9 19/41/9 17/33/9
f 20/43/10 23/52/10 19/39/10
f 24/56/11 21/46/11 23/51/11
f 22/49/12 17/34/12 21/45/12
f 23/53/13 17/35/13 19/40/13
f 20/44/14 22/50/14 24/54/14
f 18/36/9 20/42/9 19/41/9
f 20/43/10 24/55/10 23/52/10
f 24/56/11 22/48/11 21/46/11
f 22/49/12 18/37/12 17/34/12
f 23/53/13 21/47/13 17/35/13
f 20/44/14 18/38/14 22/50/14
o Cube.003
v -3.000000 0.000000 -4.000000
v -3.000000 3.000000 -4.000000
v -3.000000 0.000000 -5.000000
v -3.000000 3.000000 -5.000000
v 4.000000 0.000000 -4.000000
v 4.000000 3.000000 -4.000000
v 4.000000 0.000000 -5.000000
v 4.000000 3.000000 -5.000000
vn -1.0000 -0.0000 -0.0000
vn -0.0000 -0.0000 -1.0000
vn 1.0000 -0.0000 -0.0000
vn -0.0000 -0.0000 1.0000
vn -0.0000 -1.0000 -0.0000
vn -0.0000 1.0000 -0.0000
vt 0.186603 -0.440193
vt -1.693783 -0.440193
vt -1.693783 0.186603
vt 0.186603 1.440193
vt -1.693783 1.440193
vt -1.693783 0.186603
vt -1.693783 -0.440193
vt -1.693783 0.813397
vt 0.813397 -0.440193
vt 0.813397 1.440193
vt -1.693783 1.440193
vt -1.693783 0.813397
vt 2.693783 -0.440193
vt 0.186603 -0.440193
vt 2.693783 0.186603
vt 0.186603 1.440193
vt 2.693783 1.440193
vt 2.693783 0.186603
vt 0.813397 -0.440193
vt 2.693783 -0.440193
vt 2.693783 0.813397
vt 2.693783 0.813397
vt 2.693783 1.440193
vt 0.813397 1.440193
s 0
usemtl wall
f 26/60/15 27/65/15 25/57/15
f 28/67/16 31/76/16 27/63/16
f 32/80/17 29/70/17 31/75/17
f 30/73/18 25/58/18 29/69/18
f 31/77/19 25/59/19 27/64/19
f 28/68/20 30/74/20 32/78/20
f 26/60/15 28/66/15 27/65/15
f 28/67/16 32/79/16 31/76/16
f 32/80/17 30/72/17 29/70/17
f 30/73/18 26/61/18 25/58/18
f 31/77/19 29/71/19 25/59/19
f 28/68/20 26/62/20 30/74/20
o Cube.004
v 4.000000 0.000000 -5.000000
v 4.000000 3.000000 -5.000000
v 3.000000 0.000000 -5.000000
v 3.000000 3.000000 -5.000000
v 4.000000 0.000000 -17.000000
v 4.000000 3.000000 -17.000000
v 3.000000 0.000000 -17.000000
v 3.000000 3.000000 -17.000000
vn -0.0000 -0.0000 1.0000
vn -1.0000 -0.0000 -0.0000
vn -0.0000 -0.0000 -1.0000
vn 1.0000 -0.0000 -0.0000
vn -0.0000 -1.0000 -0.0000
vn -0.0000 1.0000 -0.0000
vt 0.186602 -0.440193
vt -3.260770 -0.440193
vt -3.260770 0.186602
vt 0.186602 1.440193
vt -3.260770 1.440193
vt -3.260770 0.186602
vt -3.260770 -0.440193
vt -3.260770 0.813397
vt 0.813397 -0.440193
vt 0.813397 1.440193
vt -3.260770 1.440193
vt -3.260770 0.813397
vt 4.260770 -0.440193
vt 0.186603 -0.440193
vt 4.260770 0.186603
vt 0.186603 1.440193
vt 4.260770 1.440193
vt 4.260770 0.186603
vt 0.813398 -0.440193
vt 4.260770 -0.440193
vt 4.260770 0.813398
vt 4.260770 0.813398
vt 4.260770 1.440193
vt 0.813398 1.440193
s 0
usemtl wall
f 34/84/21 35/89/21 33/81/21
f 36/91/22 39/100/22 35/87/22
f 40/104/23 37/94/23 39/99/23
f 38/97/24 33/82/24 37/93/24
f 39/101/25 33/83/25 35/88/25
f 36/92/26 38/98/26 40/102/26
f 34/84/21 36/90/21 35/89/21
f 36/91/22 40/103/22 39/100/22
f 40/104/23 38/96/23 37/94/23
f 38/97/24 34/85/24 33/82/24
f 39/101/25 37/95/25 33/83/25
f 36/92/26 34/86/26 38/98/26
o Cube.005
v 4.000000 0.000000 14.000000
v 4.000000 3.000000 14.000000
v 3.000000 0.000000 14.000000
v 3.000000 3.000000 14.000000
v 4.000000 0.000000 2.000000
v 4.000000 3.000000 2.000000
v 3.000000 0.000000 2.000000
v 3.000000 3.000000 2.000000
vn -0.0000 -0.0000 1.0000
vn -1.0000 -0.0000 -0.0000
vn -0.0000 -0.0000 -1.0000
vn 1.0000 -0.0000 -0.0000
vn -0.0000 -1.0000 -0.0000
vn -0.0000 1.0000 -0.0000
vt 0.186602 -0.440193
vt -3.260770 -0.440193
vt -3.260770 0.186602
vt 0.186602 1.440193
vt -3.260770 1.440193
vt -3.260770 0.186602
vt -3.260770 -0.440193
vt -3.260770 0.813397
vt 0.813397 -0.440193
vt 0.813397 1.440193
vt -3.260770 1.440193
vt -3.260770 0.813397
vt 4.260770 -0.440193
vt 0.186603 -0.440193
vt 4.260770 0.186603
vt 0.186603 1.440193
vt 4.260770 1.440193
vt 4.260770 0.186603
vt 0.813398 -0.440193
vt 4.260770 -0.440193
vt 4.260770 0.813398
vt 4.260770 0.813398
vt 4.260770 1.440193
vt 0.813398 1.440193
s 0
usemtl wall
f 42/108/27 43/113/27 41/105/27
f 44/115/28 47/124/28 43/111/28
f 48/128/29 45/118/29 47/123/29
f 46/121/30 41/106/30 45/117/30
f 47/125/31 41/107/31 43/112/31
f 44/116/32 46/122/32 48/126/32
f 42/108/27 44/114/27 43/113/27
f 44/115/28 48/127/28 47/124/28
f 48/128/29 46/120/29 45/118/29
f 46/121/30 42/109/30 41/106/30
f 47/125/31 45/119/31 41/107/31
f 44/116/32 42/110/32 46/122/32
o Cube.007
v 10.000000 0.000000 20.000000
v 10.000000 3.000000 20.000000
v 9.000000 0.000000 20.000000
v 9.000000 3.000000 20.000000
v 10.000001 0.000000 -20.000000
v 10.000001 3.000000 -20.000000
v 9.000001 0.000000 -20.000000
v 9.000001 3.000000 -20.000000
vn -0.0000 -0.0000 1.0000
vn -1.0000 -0.0000 -0.0000
vn -0.0000 -0.0000 -1.0000
vn 1.0000 -0.0000 -0.0000
vn -0.0000 -1.0000 -0.0000
vn -0.0000 1.0000 -0.0000
vt 0.186602 -0.440193
vt -12.035899 -0.440193
vt -12.035899 0.186602
vt 0.186602 1.440193
vt -12.035899 1.440193
vt -12.035899 0.186602
vt -12.035899 -0.440193
vt -12.035899 0.813397
vt 0.813397 -0.440193
vt 0.813397 1.440193
vt -12.035899 1.440193
vt -12.035899 0.813397
vt 13.035899 -0.440193
vt 0.186603 -0.440193
vt 13.035899 0.186603
vt 0.186603 1.440193
vt 13.035899 1.440193
vt 13.035899 0.186603
vt 0.813398 -0.440193
vt 13.035899 -0.440193
vt 13.035899 0.813398
vt 13.035899 0.813398
vt 13.035899 1.440193
vt 0.813398 1.440193
s 0
usemtl wall
f 50/132/33 51/137/33 49/129/33
f 52/139/34 55/148/34 51/135/34
f 56/152/35 53/142/35 55/147/35
f 54/145/36 49/130/36 53/141/36
f 55/149/37 49/131/37 51/136/37
f 52/140/38 54/146/38 56/150/38
f 50/132/33 52/138/33 51/137/33
f 52/139/34 56/151/34 55/148/34
f 56/152/35 54/144/35 53/142/35
f 54/145/36 50/133/36 49/130/36
f 55/149/37 53/143/37 49/131/37
f 52/140/38 50/134/38 54/146/38
o Cube.008
v -10.000000 0.000000 -20.000000
v -10.000000 3.000000 -20.000000
v -10.000000 0.000000 -21.000000
v -10.000000 3.000000 -21.000000
v 10.000000 0.000000 -20.000000
v 10.000000 3.000000 -20.000000
v 10.000000 0.000000 -21.000000
v 10.000000 3.000000 -21.000000
vn -1.0000 -0.0000 -0.0000
vn -0.0000 -0.0000 -1.0000
vn 1.0000 -0.0000 -0.0000
vn -0.0000 -0.0000 1.0000
vn -0.0000 -1.0000 -0.0000
vn -0.0000 1.0000 -0.0000
vt 0.186603 -0.440193
vt -5.767950 -0.440193
vt -5.767950 0.186603
vt 0.186603 1.440193
vt -5.767950 1.440193
vt -5.767950 0.186603
vt -5.767950 -0.440193
vt -5.767950 0.813397
vt 0.813397 -0.440193
vt 0.813397 1.440193
vt -5.767950 1.440193
vt -5.767950 0.813397
vt 6.767950 -0.440193
vt 0.186603 -0.440193
vt 6.767950 0.186603
vt 0.186603 1.440193
vt 6.767950 1.440193
vt 6.767950 0.186603
vt 0.813397 -0.440193
vt 6.767950 -0.440193
vt 6.767950 0.813397
vt 6.767950 0.813397
vt 6.767950 1.440193
vt 0.813397 1.440193
s 0
usemtl wall
f 58/156/39 59/161/39 57/153/39
f 60/163/40 63/172/40 59/159/40
f 64/176/41 61/166/41 63/171/41
f 62/169/42 57/154/42 61/165/42
f 63/173/43 57/155/43 59/160/43
f 60/164/44 62/170/44 64/174/44
f 58/156/39 60/162/39 59/161/39
f 60/163/40 64/175/40 63/172/40
f 64/176/41 62/168/41 61/166/41
f 62/169/42 58/157/42 57/154/42
f 63/173/43 61/167/43 57/155/43
f 60/164/44 58/158/44 62/170/44
o Cube.009
v -10.000000 0.000000 21.000000
v -10.000000 3.000000 21.000000
v -10.000000 0.000000 20.000000
v -10.000000 3.000000 20.000000
v 10.000000 0.000000 21.000000
v 10.000000 3.000000 21.000000
v 10.000000 0.000000 20.000000
v 10.000000 3.000000 20.000000
vn -1.0000 -0.0000 -0.0000
vn -0.0000 -0.0000 -1.0000
vn 1.0000 -0.0000 -0.0000
vn -0.0000 -0.0000 1.0000
vn -0.0000 -1.0000 -0.0000
vn -0.0000 1.0000 -0.0000
vt 0.186603 -0.440193
vt -5.767950 -0.440193
vt -5.767950 0.186603
vt 0.186603 1.440193
vt -5.767950 1.440193
vt -5.767950 0.186603
vt -5.767950 -0.440193
vt -5.767950 0.813397
vt 0.813397 -0.440193
vt 0.813397 1.440193
vt -5.767950 1.440193
vt -5.767950 0.813397
vt 6.767950 -0.440193
vt 0.186603 -0.440193
vt 6.767950 0.186603
vt 0.186603 1.440193
vt 6.767950 1.440193
vt 6.767950 0.186603
vt 0.813397 -0.440193
vt 6.767950 -0.440193
vt 6.767950 0.813397
vt 6.767950 0.813397
vt 6.767950 1.440193
vt 0.813397 1.440193
s 0
usemtl wall
f 66/180/45 67/185/45 65/177/45
f 68/187/46 71/196/46 67/183/46
f 72/200/47 69/190/47 71/195/47
f 70/193/48 65/178/48 69/189/48
f 71/197/49 65/179/49 67/184/49
f 68/188/50 70/194/50 72/198/50
f 66/180/45 68/186/45 67/185/45
f 68/187/46 72/199/46 71/196/46
f 72/200/47 70/192/47 69/190/47
f 70/193/48 66/181/48 65/178/48
f 71/197/49 69/191/49 65/179/49
f 68/188/50 66/182/50 70/194/50
o Cube.010
v -16.000000 0.000000 -16.000000
v -16.000000 3.000000 -16.000000
v -16.000000 0.000000 -17.000000
v -16.000000 3.000000 -17.000000
v 3.000000 0.000000 -16.000000
v 3.000000 3.000000 -16.000000
v 3.000000 0.000000 -17.000000
v 3.000000 3.000000 -17.000000
vn -1.0000 -0.0000 -0.0000
vn -0.0000 -0.0000 -1.0000
vn 1.0000 -0.0000 -0.0000
vn -0.0000 -0.0000 1.0000
vn -0.0000 -1.0000 -0.0000
vn -0.0000 1.0000 -0.0000
vt 0.186603 -0.440193
vt -5.454553 -0.440193
vt -5.454553 0.186603
vt 0.186603 1.440193
vt -5.454553 1.440193
vt -5.454553 0.186603
vt -5.454553 -0.440193
vt -5.454553 0.813397
vt 0.813397 -0.440193
vt 0.813397 1.440193
vt -5.454553 1.440193
vt -5.454553 0.813397
vt 6.454553 -0.440193
vt 0.186603 -0.440193
vt 6.454553 0.186603
vt 0.186603 1.440193
vt 6.454553 1.440193
vt 6.454553 0.186603
vt 0.813397 -0.440193
vt 6.454553 -0.440193
vt 6.454553 0.813397
vt 6.454553 0.813397
vt 6.454553 1.440193
vt 0.813397 1.440193
s 0
usemtl wall
f 74/204/51 75/209/51 73/201/51
f 76/211/52 79/220/52 75/207/52
f 80/224/53 77/214/53 79/219/53
f 78/217/54 73/202/54 77/213/54
f 79/221/55 73/203/55 75/208/55
f 76/212/56 78/218/56 80/222/56
f 74/204/51 76/210/51 75/209/51
f 76/211/52 80/223/52 79/220/52
f 80/224/53 78/216/53 77/214/53
f 78/217/54 74/205/54 73/202/54
f 79/221/55 77/215/55 73/203/55
f 76/212/56 74/206/56 78/218/56
o Cube.011
v -16.000000 0.000000 15.000000
v -16.000000 3.000000 15.000000
v -16.000000 0.000000 14.000000
v -16.000000 3.000000 14.000000
v 4.000000 0.000000 15.000000
v 4.000000 3.000000 15.000000
v 4.000000 0.000000 14.000000
v 4.000000 3.000000 14.000000
vn -1.0000 -0.0000 -0.0000
vn -0.0000 -0.0000 -1.0000
vn 1.0000 -0.0000 -0.0000
vn -0.0000 -0.0000 1.0000
vn -0.0000 -1.0000 -0.0000
vn -0.0000 1.0000 -0.0000
vt 0.186603 -0.440193
vt -5.767950 -0.440193
vt -5.767950 0.186603
vt 0.186603 1.440193
vt -5.767950 1.440193
vt -5.767950 0.186603
vt -5.767950 -0.440193
vt -5.767950 0.813397
vt 0.813397 -0.440193
vt 0.813397 1.440193
vt -5.767950 1.440193
vt -5.767950 0.813397
vt 6.767950 -0.440193
vt 0.186603 -0.440193
vt 6.767950 0.186603
vt 0.186603 1.440193
vt 6.767950 1.440193
vt 6.767950 0.186603
vt 0.813397 -0.440193
vt 6.767950 -0.440193
vt 6.767950 0.813397
vt 6.767950 0.813397
vt 6.767950 1.440193
vt 0.813397 1.440193
s 0
usemtl wall
f 82/228/57 83/233/57 81/225/57
f 84/235/58 87/244/58 83/231/58
f 88/248/59 85/238/59 87/243/59
f 86/241/60 81/226/60 85/237/60
f 87/245/61 81/227/61 83/232/61
f 84/236/62 86/242/62 88/246/62
f 82/228/57 84/234/57 83/233/57
f 84/235/58 88/247/58 87/244/58
f 88/248/59 86/240/59 85/238/59
f 86/241/60 82/229/60 81/226/60
f 87/245/61 85/239/61 81/227/61
f 84/236/62 82/230/62 86/242/62
o Cube.006
v -16.000000 0.000000 15.000000
v -16.000000 3.000000 15.000000
v -17.000000 0.000000 15.000000
v -17.000000 3.000000 15.000000
v -15.999999 0.000000 3.000000
v -15.999999 3.000000 3.000000
v -17.000000 0.000000 3.000000
v -17.000000 3.000000 3.000000
vn -0.0000 -0.0000 1.0000
vn -1.0000 -0.0000 -0.0000
vn -0.0000 -0.0000 -1.0000
vn 1.0000 -0.0000 -0.0000
vn -0.0000 -1.0000 -0.0000
vn -0.0000 1.0000 -0.0000
vt 0.186602 -0.440193
vt -3.260770 -0.440193
vt -3.260770 0.186602
vt 0.186602 1.440193
vt -3.260770 1.440193
vt -3.260770 0.186602
vt -3.260770 -0.440193
vt -3.260770 0.813397
vt 0.813397 -0.440193
vt 0.813397 1.440193
vt -3.260770 1.440193
vt -3.260770 0.813397
vt 4.260770 -0.440193
vt 0.186603 -0.440193
vt 4.260770 0.186603
vt 0.186603 1.440193
vt 4.260770 1.440193
vt 4.260770 0.186603
vt 0.813398 -0.440193
vt 4.260770 -0.440193
vt 4.260770 0.813398
vt 4.260770 0.813398
vt 4.260770 1.440193
vt 0.813398 1.440193
s 0
usemtl wall
f 90/252/63 91/257/63 89/249/63
f 92/259/64 95/268/64 91/255/64
f 96/272/65 93/262/65 95/267/65
f 94/265/66 89/250/66 93/261/66
f 95/269/67 89/251/67 91/256/67
f 92/260/68 94/266/68 96/270/68
f 90/252/63 92/258/63 91/257/63
f 92/259/64 96/271/64 95/268/64
f 96/272/65 94/264/65 93/262/65
f 94/265/66 90/253/66 89/250/66
f 95/269/67 93/263/67 89/251/67
f 92/260/68 90/254/68 94/266/68
o Cube.012
v -16.000000 0.000000 -3.000000
v -16.000000 3.000000 -3.000000
v -17.000000 0.000000 -3.000000
v -17.000000 3.000000 -3.000000
v -15.999999 0.000000 -17.000000
v -15.999999 3.000000 -17.000000
v -17.000000 0.000000 -17.000000
v -17.000000 3.000000 -17.000000
vn -0.0000 -0.0000 1.0000
vn -1.0000 -0.0000 -0.0000
vn -0.0000 -0.0000 -1.0000
vn 1.0000 -0.0000 -0.0000
vn -0.0000 -1.0000 -0.0000
vn -0.0000 1.0000 -0.0000
vt 0.186602 -0.440193
vt -3.887565 -0.440193
vt -3.887565 0.186602
vt 0.186602 1.440193
vt -3.887565 1.440193
vt -3.887565 0.186602
vt -3.887565 -0.440193
vt -3.887565 0.813397
vt 0.813397 -0.440193
vt 0.813397 1.440193
vt -3.887565 1.440193
vt -3.887565 0.813397
vt 4.887565 -0.440193
vt 0.186603 -0.440193
vt 4.887565 0.186603
vt 0.186603 1.440193
vt 4.887565 1.440193
vt 4.887565 0.186603
vt 0.813398 -0.440193
vt 4.887565 -0.440193
vt 4.887565 0.813398
vt 4.887565 0.813398
vt 4.887565 1.440193
vt 0.813398 1.440193
s 0
usemtl wall
f 98/276/69 99/281/69 97/273/69
f 100/283/70 103/292/70 99/279/70
f 104/296/71 101/286/71 103/291/71
f 102/289/72 97/274/72 101/285/72
f 103/293/73 97/275/73 99/280/73
f 100/284/74 102/290/74 104/294/74
f 98/276/69 100/282/69 99/281/69
f 100/283/70 104/295/70 103/292/70
f 104/296/71 102/288/71 101/286/71
f 102/289/72 98/277/72 97/274/72
f 103/293/73 101/287/73 97/275/73
f 100/284/74 98/278/74 102/290/74
o Cube.013
v -10.000000 0.000000 32.000000
v -10.000000 3.000000 32.000000
v -11.000000 0.000000 32.000000
v -11.000000 3.000000 32.000000
v -9.999999 0.000000 20.000000
v -9.999999 3.000000 20.000000
v -10.999999 0.000000 20.000000
v -10.999999 3.000000 20.000000
vn -0.0000 -0.0000 1.0000
vn -1.0000 -0.0000 -0.0000
vn -0.0000 -0.0000 -1.0000
vn 1.0000 -0.0000 -0.0000
vn -0.0000 -1.0000 -0.0000
vn -0.0000 1.0000 -0.0000
vt 0.186602 -0.440193
vt -3.260770 -0.440193
vt -3.260770 0.186602
vt 0.186602 1.440193
vt -3.260770 1.440193
vt -3.260770 0.186602
vt -3.260770 -0.440193
vt -3.260770 0.813397
vt 0.813397 -0.440193
vt 0.813397 1.440193
vt -3.260770 1.440193
vt -3.260770 0.813397
vt 4.260770 -0.440193
vt 0.186603 -0.440193
vt 4.260770 0.186603
vt 0.186603 1.440193
vt 4.260770 1.440193
vt 4.260770 0.186603
vt 0.813398 -0.440193
vt 4.260770 -0.440193
vt 4.260770 0.813398
vt 4.260770 0.813398
vt 4.260770 1.440193
vt 0.813398 1.440193
s 0
usemtl wall
f 106/300/75 107/305/75 105/297/75
f 108/307/76 111/316/76 107/303/76
f 112/320/77 109/310/77 111/315/77
f 110/313/78 105/298/78 109/309/78
f 111/317/79 105/299/79 107/304/79
f 108/308/80 110/314/80 112/318/80
f 106/300/75 108/306/75 107/305/75
f 108/307/76 112/319/76 111/316/76
f 112/320/77 110/312/77 109/310/77
f 110/313/78 106/301/78 105/298/78
f 111/317/79 109/311/79 105/299/79
f 108/308/80 106/302/80 110/314/80
o Cube.014
v -10.000000 0.000000 -20.000000
v -10.000000 3.000000 -20.000000
v -11.000000 0.000000 -20.000000
v -11.000000 3.000000 -20.000000
v -9.999999 0.000000 -32.000000
v -9.999999 3.000000 -32.000000
v -10.999999 0.000000 -32.000000
v -10.999999 3.000000 -32.000000
vn -0.0000 -0.0000 1.0000
vn -1.0000 -0.0000 -0.0000
vn -0.0000 -0.0000 -1.0000
vn 1.0000 -0.0000 -0.0000
vn -0.0000 -1.0000 -0.0000
vn -0.0000 1.0000 -0.0000
vt 0.186602 -0.440193
vt -3.260770 -0.440193
vt -3.260770 0.186602
vt 0.186602 1.440193
vt -3.260770 1.440193
vt -3.260770 0.186602
vt -3.260770 -0.440193
vt -3.260770 0.813397
vt 0.813397 -0.440193
vt 0.813397 1.440193
vt -3.260770 1.440193
vt -3.260770 0.813397
vt 4.260770 -0.440193
vt 0.186603 -0.440193
vt 4.260770 0.186603
vt 0.186603 1.440193
vt 4.260770 1.440193
vt 4.260770 0.186603
vt 0.813398 -0.440193
vt 4.260770 -0.440193
vt 4.260770 0.813398
vt 4.260770 0.813398
vt 4.260770 1.440193
vt 0.813398 1.440193
s 0
usemtl wall
f 114/324/81 115/329/81 113/321/81
f 116/331/82 119/340/82 115/327/82
f 120/344/83 117/334/83 119/339/83
f 118/337/84 113/322/84 117/333/84
f 119/341/85 113/323/85 115/328/85
f 116/332/86 118/338/86 120/342/86
f 114/324/81 116/330/81 115/329/81
f 116/331/82 120/343/82 119/340/82
f 120/344/83 118/336/83 117/334/83
f 118/337/84 114/325/84 113/322/84
f 119/341/85 117/335/85 113/323/85
f 116/332/86 114/326/86 118/338/86
o Cube.015
v -31.000000 0.000000 -31.000000
v -31.000000 3.000000 -31.000000
v -31.000000 0.000000 -32.000000
v -31.000000 3.000000 -32.000000
v -11.000000 0.000000 -31.000000
v -11.000000 3.000000 -31.000000
v -11.000000 0.000000 -32.000000
v -11.000000 3.000000 -32.000000
vn -1.0000 -0.0000 -0.0000
vn -0.0000 -0.0000 -1.0000
vn 1.0000 -0.0000 -0.0000
vn -0.0000 -0.0000 1.0000
vn -0.0000 -1.0000 -0.0000
vn -0.0000 1.0000 -0.0000
vt 0.186603 -0.440193
vt -5.767950 -0.440193
vt -5.767950 0.186603
vt 0.186603 1.440193
vt -5.767950 1.440193
vt -5.767950 0.186603
vt -5.767950 -0.440193
vt -5.767950 0.813397
vt 0.813397 -0.440193
vt 0.813397 1.440193
vt -5.767950 1.440193
vt -5.767950 0.813397
vt 6.767950 -0.440193
vt 0.186603 -0.440193
vt 6.767950 0.186603
vt 0.186603 1.440193
vt 6.767950 1.440193
vt 6.767950 0.186603
vt 0.813397 -0.440193
vt 6.767950 -0.440193
vt 6.767950 0.813397
vt 6.767950 0.813397
vt 6.767950 1.440193
vt 0.813397 1.440193
s 0
usemtl wall
f 122/348/87 123/353/87 121/345/87
f 124/355/88 127/364/88 123/351/88
f 128/368/89 125/358/89 127/363/89
f 126/361/90 121/346/90 125/357/90
f 127/365/91 121/347/91 123/352/91
f 124/356/92 126/362/92 128/366/92
f 122/348/87 124/354/87 123/353/87
f 124/355/88 128/367/88 127/364/88
f 128/368/89 126/360/89 125/358/89
f 126/361/90 122/349/90 121/346/90
f 127/365/91 125/359/91 121/347/91
f 124/356/92 122/350/92 126/362/92
o Cube.016
v -31.000000 0.000000 32.000000
v -31.000000 3.000000 32.000000
v -31.000000 0.000000 31.000000
v -31.000000 3.000000 31.000000
v -11.000000 0.000000 32.000000
v -11.000000 3.000000 32.000000
v -11.000000 0.000000 31.000000
v -11.000000 3.000000 31.000000
vn -1.0000 -0.0000 -0.0000
vn -0.0000 -0.0000 -1.0000
vn 1.0000 -0.0000 -0.0000
vn -0.0000 -0.0000 1.0000
vn -0.0000 -1.0000 -0.0000
vn -0.0000 1.0000 -0.0000
vt 0.186603 -0.440193
vt -5.767950 -0.440193
vt -5.767950 0.186603
vt 0.186603 1.440193
vt -5.767950 1.440193
vt -5.767950 0.186603
vt -5.767950 -0.440193
vt -5.767950 0.813397
vt 0.813397 -0.440193
vt 0.813397 1.440193
vt -5.767950 1.440193
vt -5.767950 0.813397
vt 6.767950 -0.440193
vt 0.186603 -0.440193
vt 6.767950 0.186603
vt 0.186603 1.440193
vt 6.767950 1.440193
vt 6.767950 0.186603
vt 0.813397 -0.440193
vt 6.767950 -0.440193
vt 6.767950 0.813397
vt 6.767950 0.813397
vt 6.767950 1.440193
vt 0.813397 1.440193
s 0
usemtl wall
f 130/372/93 131/377/93 129/369/93
f 132/379/94 135/388/94 131/375/94
f 136/392/95 133/382/95 135/387/95
f 134/385/96 129/370/96 133/381/96
f 135/389/97 129/371/97 131/376/97
f 132/380/98 134/386/98 136/390/98
f 130/372/93 132/378/93 131/377/93
f 132/379/94 136/391/94 135/388/94
f 136/392/95 134/384/95 133/382/95
f 134/385/96 130/373/96 129/370/96
f 135/389/97 133/383/97 129/371/97
f 132/380/98 130/374/98 134/386/98
o Cube.017
v -30.000000 0.000000 31.000000
v -30.000000 3.000000 31.000000
v -31.000000 0.000000 31.000000
v -31.000000 3.000000 31.000000
v -30.000000 0.000000 -31.000000
v -30.000000 3.000000 -31.000000
v -31.000000 0.000000 -31.000000
v -31.000000 3.000000 -31.000000
vn -0.0000 -0.0000 1.0000
vn -1.0000 -0.0000 -0.0000
vn -0.0000 -0.0000 -1.0000
vn 1.0000 -0.0000 -0.0000
vn -0.0000 -1.0000 -0.0000
vn -0.0000 1.0000 -0.0000
vt 0.186601 -0.440193
vt -18.930645 -0.440193
vt -18.930645 0.186601
vt 0.186601 1.440193
vt -18.930645 1.440193
vt -18.930645 0.186601
vt -18.930645 -0.440193
vt -18.930645 0.813396
vt 0.813396 -0.440193
vt 0.813396 1.440193
vt -18.930645 1.440193
vt -18.930645 0.813396
vt 19.930645 -0.440193
vt 0.186604 -0.440193
vt 19.930645 0.186604
vt 0.186604 1.440193
vt 19.930645 1.440193
vt 19.930645 0.186604
vt 0.813399 -0.440193
vt 19.930645 -0.440193
vt 19.930645 0.813399
vt 19.930645 0.813399
vt 19.930645 1.440193
vt 0.813399 1.440193
s 0
usemtl wall
f 138/396/99 139/401/99 137/393/99
f 140/403/100 143/412/100 139/399/100
f 144/416/101 141/406/101 143/411/101
f 142/409/102 137/394/102 141/405/102
f 143/413/103 137/395/103 139/400/103
f 140/404/104 142/410/104 144/414/104
f 138/396/99 140/402/99 139/401/99
f 140/403/100 144/415/100 143/412/100
f 144/416/101 142/408/101 141/406/101
f 142/409/102 138/397/102 137/394/102
f 143/413/103 141/407/103 137/395/103
f 140/404/104 138/398/104 142/410/104
